<mxfile host="app.diagrams.net" agent="Mozilla/5.0 (Windows NT 10.0; Win64; x64) AppleWebKit/537.36 (KHTML, like Gecko) Chrome/127.0.0.0 Safari/537.36" version="24.7.6" pages="2">
  <diagram name="Page-1" id="8bRmoLA35Rx6RovawdYG">
    <mxGraphModel dx="1290" dy="565" grid="1" gridSize="10" guides="1" tooltips="1" connect="1" arrows="1" fold="1" page="1" pageScale="1" pageWidth="827" pageHeight="1169" math="0" shadow="0">
      <root>
        <mxCell id="0" />
        <mxCell id="1" parent="0" />
        <mxCell id="xozUp4OHhCERwI9AEEZb-1" value="User" style="rounded=0;whiteSpace=wrap;html=1;" vertex="1" parent="1">
          <mxGeometry x="210" y="120" width="120" height="60" as="geometry" />
        </mxCell>
        <mxCell id="xozUp4OHhCERwI9AEEZb-2" value="Login" style="ellipse;whiteSpace=wrap;html=1;" vertex="1" parent="1">
          <mxGeometry x="430" y="240" width="120" height="100" as="geometry" />
        </mxCell>
        <mxCell id="xozUp4OHhCERwI9AEEZb-3" value="Admin" style="rounded=0;whiteSpace=wrap;html=1;" vertex="1" parent="1">
          <mxGeometry x="780" y="260" width="120" height="60" as="geometry" />
        </mxCell>
        <mxCell id="xozUp4OHhCERwI9AEEZb-4" value="" style="endArrow=classic;html=1;rounded=0;entryX=0;entryY=0.5;entryDx=0;entryDy=0;" edge="1" parent="1">
          <mxGeometry relative="1" as="geometry">
            <mxPoint x="270" y="180" as="sourcePoint" />
            <mxPoint x="430" y="280" as="targetPoint" />
            <Array as="points">
              <mxPoint x="270" y="280" />
            </Array>
          </mxGeometry>
        </mxCell>
        <mxCell id="xozUp4OHhCERwI9AEEZb-5" value="Pass Login" style="edgeLabel;resizable=0;html=1;;align=center;verticalAlign=middle;" connectable="0" vertex="1" parent="xozUp4OHhCERwI9AEEZb-4">
          <mxGeometry relative="1" as="geometry" />
        </mxCell>
        <mxCell id="xozUp4OHhCERwI9AEEZb-6" value="" style="endArrow=classic;html=1;rounded=0;entryX=0;entryY=0.5;entryDx=0;entryDy=0;exitX=1;exitY=0.5;exitDx=0;exitDy=0;" edge="1" parent="1">
          <mxGeometry relative="1" as="geometry">
            <mxPoint x="550" y="280" as="sourcePoint" />
            <mxPoint x="780" y="280" as="targetPoint" />
          </mxGeometry>
        </mxCell>
        <mxCell id="xozUp4OHhCERwI9AEEZb-7" value="Veify Details" style="edgeLabel;resizable=0;html=1;;align=center;verticalAlign=middle;" connectable="0" vertex="1" parent="xozUp4OHhCERwI9AEEZb-6">
          <mxGeometry relative="1" as="geometry" />
        </mxCell>
        <mxCell id="xozUp4OHhCERwI9AEEZb-8" value="" style="endArrow=classic;html=1;rounded=0;entryX=0.417;entryY=1;entryDx=0;entryDy=0;entryPerimeter=0;exitX=0.017;exitY=0.682;exitDx=0;exitDy=0;exitPerimeter=0;" edge="1" parent="1" source="xozUp4OHhCERwI9AEEZb-2">
          <mxGeometry relative="1" as="geometry">
            <mxPoint x="420.3599999999999" y="307.4" as="sourcePoint" />
            <mxPoint x="250.03999999999996" y="180" as="targetPoint" />
            <Array as="points">
              <mxPoint x="250" y="307" />
            </Array>
          </mxGeometry>
        </mxCell>
        <mxCell id="xozUp4OHhCERwI9AEEZb-9" value="Details Receive&amp;nbsp;" style="edgeLabel;resizable=0;html=1;;align=center;verticalAlign=middle;" connectable="0" vertex="1" parent="xozUp4OHhCERwI9AEEZb-8">
          <mxGeometry relative="1" as="geometry">
            <mxPoint x="23" as="offset" />
          </mxGeometry>
        </mxCell>
        <mxCell id="xozUp4OHhCERwI9AEEZb-10" value="" style="endArrow=classic;html=1;rounded=0;entryX=0.977;entryY=0.65;entryDx=0;entryDy=0;entryPerimeter=0;exitX=0;exitY=0.75;exitDx=0;exitDy=0;" edge="1" parent="1" source="xozUp4OHhCERwI9AEEZb-3" target="xozUp4OHhCERwI9AEEZb-2">
          <mxGeometry relative="1" as="geometry">
            <mxPoint x="440" y="400" as="sourcePoint" />
            <mxPoint x="540" y="400" as="targetPoint" />
          </mxGeometry>
        </mxCell>
        <mxCell id="xozUp4OHhCERwI9AEEZb-11" value="Send Response" style="edgeLabel;resizable=0;html=1;;align=center;verticalAlign=middle;" connectable="0" vertex="1" parent="xozUp4OHhCERwI9AEEZb-10">
          <mxGeometry relative="1" as="geometry" />
        </mxCell>
        <mxCell id="xozUp4OHhCERwI9AEEZb-12" value="Manage User" style="ellipse;whiteSpace=wrap;html=1;" vertex="1" parent="1">
          <mxGeometry x="430" y="400" width="120" height="100" as="geometry" />
        </mxCell>
        <mxCell id="xozUp4OHhCERwI9AEEZb-13" value="Number of User" style="rounded=0;whiteSpace=wrap;html=1;" vertex="1" parent="1">
          <mxGeometry x="780" y="420" width="120" height="60" as="geometry" />
        </mxCell>
        <mxCell id="xozUp4OHhCERwI9AEEZb-14" value="" style="endArrow=classic;html=1;rounded=0;entryX=0;entryY=0.5;entryDx=0;entryDy=0;" edge="1" parent="1">
          <mxGeometry relative="1" as="geometry">
            <mxPoint x="230" y="180" as="sourcePoint" />
            <mxPoint x="430" y="440" as="targetPoint" />
            <Array as="points">
              <mxPoint x="230" y="440" />
            </Array>
          </mxGeometry>
        </mxCell>
        <mxCell id="xozUp4OHhCERwI9AEEZb-15" value="Pass Login Info" style="edgeLabel;resizable=0;html=1;;align=center;verticalAlign=middle;" connectable="0" vertex="1" parent="xozUp4OHhCERwI9AEEZb-14">
          <mxGeometry relative="1" as="geometry">
            <mxPoint x="46" y="30" as="offset" />
          </mxGeometry>
        </mxCell>
        <mxCell id="xozUp4OHhCERwI9AEEZb-16" value="" style="endArrow=classic;html=1;rounded=0;entryX=0;entryY=0.5;entryDx=0;entryDy=0;exitX=1;exitY=0.5;exitDx=0;exitDy=0;" edge="1" parent="1">
          <mxGeometry relative="1" as="geometry">
            <mxPoint x="550" y="440" as="sourcePoint" />
            <mxPoint x="780" y="440" as="targetPoint" />
          </mxGeometry>
        </mxCell>
        <mxCell id="xozUp4OHhCERwI9AEEZb-17" value="Store" style="edgeLabel;resizable=0;html=1;;align=center;verticalAlign=middle;" connectable="0" vertex="1" parent="xozUp4OHhCERwI9AEEZb-16">
          <mxGeometry relative="1" as="geometry" />
        </mxCell>
        <mxCell id="xozUp4OHhCERwI9AEEZb-18" value="" style="endArrow=classic;html=1;rounded=0;entryX=0.07;entryY=1.003;entryDx=0;entryDy=0;entryPerimeter=0;exitX=0.017;exitY=0.682;exitDx=0;exitDy=0;exitPerimeter=0;" edge="1" parent="1" source="xozUp4OHhCERwI9AEEZb-12" target="xozUp4OHhCERwI9AEEZb-1">
          <mxGeometry relative="1" as="geometry">
            <mxPoint x="420.3599999999999" y="467.4" as="sourcePoint" />
            <mxPoint x="250.03999999999996" y="340" as="targetPoint" />
            <Array as="points">
              <mxPoint x="220" y="467" />
            </Array>
          </mxGeometry>
        </mxCell>
        <mxCell id="xozUp4OHhCERwI9AEEZb-19" value="Details Receive&amp;nbsp;" style="edgeLabel;resizable=0;html=1;;align=center;verticalAlign=middle;" connectable="0" vertex="1" parent="xozUp4OHhCERwI9AEEZb-18">
          <mxGeometry relative="1" as="geometry">
            <mxPoint x="60" y="37" as="offset" />
          </mxGeometry>
        </mxCell>
        <mxCell id="xozUp4OHhCERwI9AEEZb-20" value="" style="endArrow=classic;html=1;rounded=0;entryX=0.977;entryY=0.65;entryDx=0;entryDy=0;entryPerimeter=0;exitX=0;exitY=0.75;exitDx=0;exitDy=0;" edge="1" parent="1" source="xozUp4OHhCERwI9AEEZb-13" target="xozUp4OHhCERwI9AEEZb-12">
          <mxGeometry relative="1" as="geometry">
            <mxPoint x="440" y="560" as="sourcePoint" />
            <mxPoint x="540" y="560" as="targetPoint" />
          </mxGeometry>
        </mxCell>
        <mxCell id="xozUp4OHhCERwI9AEEZb-21" value="Send Response" style="edgeLabel;resizable=0;html=1;;align=center;verticalAlign=middle;" connectable="0" vertex="1" parent="xozUp4OHhCERwI9AEEZb-20">
          <mxGeometry relative="1" as="geometry" />
        </mxCell>
        <mxCell id="xozUp4OHhCERwI9AEEZb-22" value="Manage Account" style="ellipse;whiteSpace=wrap;html=1;" vertex="1" parent="1">
          <mxGeometry x="430" y="610" width="120" height="100" as="geometry" />
        </mxCell>
        <mxCell id="xozUp4OHhCERwI9AEEZb-23" value="Account Details" style="rounded=0;whiteSpace=wrap;html=1;" vertex="1" parent="1">
          <mxGeometry x="780" y="630" width="120" height="60" as="geometry" />
        </mxCell>
        <mxCell id="xozUp4OHhCERwI9AEEZb-24" value="" style="endArrow=classic;html=1;rounded=0;entryX=0;entryY=0.5;entryDx=0;entryDy=0;exitX=0;exitY=1;exitDx=0;exitDy=0;" edge="1" parent="1" source="xozUp4OHhCERwI9AEEZb-1">
          <mxGeometry relative="1" as="geometry">
            <mxPoint x="270" y="550" as="sourcePoint" />
            <mxPoint x="430" y="650" as="targetPoint" />
            <Array as="points">
              <mxPoint x="210" y="650" />
            </Array>
          </mxGeometry>
        </mxCell>
        <mxCell id="xozUp4OHhCERwI9AEEZb-25" value="Account detail" style="edgeLabel;resizable=0;html=1;;align=center;verticalAlign=middle;" connectable="0" vertex="1" parent="xozUp4OHhCERwI9AEEZb-24">
          <mxGeometry relative="1" as="geometry">
            <mxPoint x="50" y="125" as="offset" />
          </mxGeometry>
        </mxCell>
        <mxCell id="xozUp4OHhCERwI9AEEZb-26" value="" style="endArrow=classic;html=1;rounded=0;entryX=0;entryY=0.5;entryDx=0;entryDy=0;exitX=1;exitY=0.5;exitDx=0;exitDy=0;" edge="1" parent="1">
          <mxGeometry relative="1" as="geometry">
            <mxPoint x="550" y="650" as="sourcePoint" />
            <mxPoint x="780" y="650" as="targetPoint" />
          </mxGeometry>
        </mxCell>
        <mxCell id="xozUp4OHhCERwI9AEEZb-27" value="Delete account" style="edgeLabel;resizable=0;html=1;;align=center;verticalAlign=middle;" connectable="0" vertex="1" parent="xozUp4OHhCERwI9AEEZb-26">
          <mxGeometry relative="1" as="geometry" />
        </mxCell>
        <mxCell id="xozUp4OHhCERwI9AEEZb-28" value="" style="endArrow=classic;html=1;rounded=0;exitX=0.017;exitY=0.682;exitDx=0;exitDy=0;exitPerimeter=0;entryX=0;entryY=0.75;entryDx=0;entryDy=0;" edge="1" parent="1" source="xozUp4OHhCERwI9AEEZb-22" target="xozUp4OHhCERwI9AEEZb-1">
          <mxGeometry relative="1" as="geometry">
            <mxPoint x="420.3599999999999" y="677.4" as="sourcePoint" />
            <mxPoint x="180" y="160" as="targetPoint" />
            <Array as="points">
              <mxPoint x="190" y="680" />
              <mxPoint x="190" y="165" />
            </Array>
          </mxGeometry>
        </mxCell>
        <mxCell id="xozUp4OHhCERwI9AEEZb-29" value="Details Receive&amp;nbsp;" style="edgeLabel;resizable=0;html=1;;align=center;verticalAlign=middle;" connectable="0" vertex="1" parent="xozUp4OHhCERwI9AEEZb-28">
          <mxGeometry relative="1" as="geometry">
            <mxPoint x="80" y="148" as="offset" />
          </mxGeometry>
        </mxCell>
        <mxCell id="xozUp4OHhCERwI9AEEZb-30" value="" style="endArrow=classic;html=1;rounded=0;entryX=0.977;entryY=0.65;entryDx=0;entryDy=0;entryPerimeter=0;exitX=0;exitY=0.75;exitDx=0;exitDy=0;" edge="1" parent="1" source="xozUp4OHhCERwI9AEEZb-23" target="xozUp4OHhCERwI9AEEZb-22">
          <mxGeometry relative="1" as="geometry">
            <mxPoint x="440" y="770" as="sourcePoint" />
            <mxPoint x="540" y="770" as="targetPoint" />
          </mxGeometry>
        </mxCell>
        <mxCell id="xozUp4OHhCERwI9AEEZb-31" value="Send Response" style="edgeLabel;resizable=0;html=1;;align=center;verticalAlign=middle;" connectable="0" vertex="1" parent="xozUp4OHhCERwI9AEEZb-30">
          <mxGeometry relative="1" as="geometry" />
        </mxCell>
        <mxCell id="xozUp4OHhCERwI9AEEZb-32" value="Manage Post" style="ellipse;whiteSpace=wrap;html=1;" vertex="1" parent="1">
          <mxGeometry x="430" y="780" width="120" height="100" as="geometry" />
        </mxCell>
        <mxCell id="xozUp4OHhCERwI9AEEZb-33" value="Post" style="rounded=0;whiteSpace=wrap;html=1;" vertex="1" parent="1">
          <mxGeometry x="780" y="800" width="120" height="60" as="geometry" />
        </mxCell>
        <mxCell id="xozUp4OHhCERwI9AEEZb-34" value="" style="endArrow=classic;html=1;rounded=0;entryX=0;entryY=0.5;entryDx=0;entryDy=0;exitX=0;exitY=0.5;exitDx=0;exitDy=0;" edge="1" parent="1" source="xozUp4OHhCERwI9AEEZb-1">
          <mxGeometry relative="1" as="geometry">
            <mxPoint x="270" y="720" as="sourcePoint" />
            <mxPoint x="430" y="820" as="targetPoint" />
            <Array as="points">
              <mxPoint x="170" y="150" />
              <mxPoint x="170" y="820" />
            </Array>
          </mxGeometry>
        </mxCell>
        <mxCell id="xozUp4OHhCERwI9AEEZb-35" value="Post Details" style="edgeLabel;resizable=0;html=1;;align=center;verticalAlign=middle;" connectable="0" vertex="1" parent="xozUp4OHhCERwI9AEEZb-34">
          <mxGeometry relative="1" as="geometry">
            <mxPoint x="80" y="224" as="offset" />
          </mxGeometry>
        </mxCell>
        <mxCell id="xozUp4OHhCERwI9AEEZb-36" value="" style="endArrow=classic;html=1;rounded=0;entryX=0;entryY=0.5;entryDx=0;entryDy=0;exitX=1;exitY=0.5;exitDx=0;exitDy=0;" edge="1" parent="1">
          <mxGeometry relative="1" as="geometry">
            <mxPoint x="550" y="820" as="sourcePoint" />
            <mxPoint x="780" y="820" as="targetPoint" />
          </mxGeometry>
        </mxCell>
        <mxCell id="xozUp4OHhCERwI9AEEZb-37" value="Delee Post" style="edgeLabel;resizable=0;html=1;;align=center;verticalAlign=middle;" connectable="0" vertex="1" parent="xozUp4OHhCERwI9AEEZb-36">
          <mxGeometry relative="1" as="geometry" />
        </mxCell>
        <mxCell id="xozUp4OHhCERwI9AEEZb-38" value="" style="endArrow=classic;html=1;rounded=0;entryX=0;entryY=0.333;entryDx=0;entryDy=0;exitX=0.017;exitY=0.682;exitDx=0;exitDy=0;exitPerimeter=0;entryPerimeter=0;" edge="1" parent="1" source="xozUp4OHhCERwI9AEEZb-32" target="xozUp4OHhCERwI9AEEZb-1">
          <mxGeometry relative="1" as="geometry">
            <mxPoint x="420.3599999999999" y="847.4" as="sourcePoint" />
            <mxPoint x="250.03999999999996" y="720" as="targetPoint" />
            <Array as="points">
              <mxPoint x="150" y="847" />
              <mxPoint x="150" y="140" />
            </Array>
          </mxGeometry>
        </mxCell>
        <mxCell id="xozUp4OHhCERwI9AEEZb-39" value="Details Receive&amp;nbsp;" style="edgeLabel;resizable=0;html=1;;align=center;verticalAlign=middle;" connectable="0" vertex="1" parent="xozUp4OHhCERwI9AEEZb-38">
          <mxGeometry relative="1" as="geometry">
            <mxPoint x="100" y="242" as="offset" />
          </mxGeometry>
        </mxCell>
        <mxCell id="xozUp4OHhCERwI9AEEZb-40" value="" style="endArrow=classic;html=1;rounded=0;entryX=0.977;entryY=0.65;entryDx=0;entryDy=0;entryPerimeter=0;exitX=0;exitY=0.75;exitDx=0;exitDy=0;" edge="1" parent="1" source="xozUp4OHhCERwI9AEEZb-33" target="xozUp4OHhCERwI9AEEZb-32">
          <mxGeometry relative="1" as="geometry">
            <mxPoint x="440" y="940" as="sourcePoint" />
            <mxPoint x="540" y="940" as="targetPoint" />
          </mxGeometry>
        </mxCell>
        <mxCell id="xozUp4OHhCERwI9AEEZb-41" value="Send Response" style="edgeLabel;resizable=0;html=1;;align=center;verticalAlign=middle;" connectable="0" vertex="1" parent="xozUp4OHhCERwI9AEEZb-40">
          <mxGeometry relative="1" as="geometry" />
        </mxCell>
      </root>
    </mxGraphModel>
  </diagram>
  <diagram id="_PDkWX5Orb0IhUi65LF7" name="Page-2">
    <mxGraphModel dx="1518" dy="665" grid="1" gridSize="10" guides="1" tooltips="1" connect="1" arrows="1" fold="1" page="1" pageScale="1" pageWidth="827" pageHeight="1169" math="0" shadow="0">
      <root>
        <mxCell id="0" />
        <mxCell id="1" parent="0" />
        <mxCell id="tiRIKSp6P3INZl2MkJPP-1" value="Manage" style="rhombus;whiteSpace=wrap;html=1;" vertex="1" parent="1">
          <mxGeometry x="345" y="430" width="130" height="80" as="geometry" />
        </mxCell>
        <mxCell id="tiRIKSp6P3INZl2MkJPP-2" value="Admin Data" style="rounded=0;whiteSpace=wrap;html=1;" vertex="1" parent="1">
          <mxGeometry x="360" y="620" width="100" height="40" as="geometry" />
        </mxCell>
        <mxCell id="tiRIKSp6P3INZl2MkJPP-3" value="Admin" style="rounded=0;whiteSpace=wrap;html=1;" vertex="1" parent="1">
          <mxGeometry x="360" y="290" width="100" height="40" as="geometry" />
        </mxCell>
        <mxCell id="tiRIKSp6P3INZl2MkJPP-4" value="User" style="rounded=0;whiteSpace=wrap;html=1;" vertex="1" parent="1">
          <mxGeometry x="160" y="450" width="100" height="40" as="geometry" />
        </mxCell>
        <mxCell id="tiRIKSp6P3INZl2MkJPP-5" value="User Data" style="rounded=0;whiteSpace=wrap;html=1;" vertex="1" parent="1">
          <mxGeometry x="550" y="450" width="100" height="40" as="geometry" />
        </mxCell>
        <mxCell id="tiRIKSp6P3INZl2MkJPP-6" value="" style="endArrow=none;html=1;rounded=0;entryX=0.5;entryY=1;entryDx=0;entryDy=0;exitX=0.5;exitY=0;exitDx=0;exitDy=0;" edge="1" parent="1" source="tiRIKSp6P3INZl2MkJPP-1" target="tiRIKSp6P3INZl2MkJPP-3">
          <mxGeometry width="50" height="50" relative="1" as="geometry">
            <mxPoint x="390" y="460" as="sourcePoint" />
            <mxPoint x="440" y="410" as="targetPoint" />
          </mxGeometry>
        </mxCell>
        <mxCell id="tiRIKSp6P3INZl2MkJPP-7" value="" style="endArrow=none;html=1;rounded=0;entryX=0.5;entryY=0;entryDx=0;entryDy=0;exitX=0.5;exitY=1;exitDx=0;exitDy=0;" edge="1" parent="1" source="tiRIKSp6P3INZl2MkJPP-1" target="tiRIKSp6P3INZl2MkJPP-2">
          <mxGeometry width="50" height="50" relative="1" as="geometry">
            <mxPoint x="390" y="460" as="sourcePoint" />
            <mxPoint x="440" y="410" as="targetPoint" />
          </mxGeometry>
        </mxCell>
        <mxCell id="tiRIKSp6P3INZl2MkJPP-8" value="" style="endArrow=none;html=1;rounded=0;exitX=1;exitY=0.5;exitDx=0;exitDy=0;entryX=0;entryY=0.5;entryDx=0;entryDy=0;" edge="1" parent="1" source="tiRIKSp6P3INZl2MkJPP-4" target="tiRIKSp6P3INZl2MkJPP-1">
          <mxGeometry width="50" height="50" relative="1" as="geometry">
            <mxPoint x="390" y="460" as="sourcePoint" />
            <mxPoint x="440" y="410" as="targetPoint" />
          </mxGeometry>
        </mxCell>
        <mxCell id="tiRIKSp6P3INZl2MkJPP-9" value="" style="endArrow=none;html=1;rounded=0;entryX=0;entryY=0.5;entryDx=0;entryDy=0;exitX=1;exitY=0.5;exitDx=0;exitDy=0;" edge="1" parent="1" source="tiRIKSp6P3INZl2MkJPP-1" target="tiRIKSp6P3INZl2MkJPP-5">
          <mxGeometry width="50" height="50" relative="1" as="geometry">
            <mxPoint x="390" y="460" as="sourcePoint" />
            <mxPoint x="440" y="410" as="targetPoint" />
          </mxGeometry>
        </mxCell>
        <mxCell id="tiRIKSp6P3INZl2MkJPP-10" value="User_id" style="ellipse;whiteSpace=wrap;html=1;" vertex="1" parent="1">
          <mxGeometry x="40" y="350" width="80" height="40" as="geometry" />
        </mxCell>
        <mxCell id="tiRIKSp6P3INZl2MkJPP-11" value="User_name" style="ellipse;whiteSpace=wrap;html=1;" vertex="1" parent="1">
          <mxGeometry y="410" width="80" height="40" as="geometry" />
        </mxCell>
        <mxCell id="tiRIKSp6P3INZl2MkJPP-12" value="Email_id" style="ellipse;whiteSpace=wrap;html=1;" vertex="1" parent="1">
          <mxGeometry x="10" y="470" width="80" height="40" as="geometry" />
        </mxCell>
        <mxCell id="tiRIKSp6P3INZl2MkJPP-13" value="Passwod" style="ellipse;whiteSpace=wrap;html=1;" vertex="1" parent="1">
          <mxGeometry x="60" y="530" width="80" height="40" as="geometry" />
        </mxCell>
        <mxCell id="tiRIKSp6P3INZl2MkJPP-15" value="" style="endArrow=none;html=1;rounded=0;exitX=1;exitY=1;exitDx=0;exitDy=0;entryX=0;entryY=0;entryDx=0;entryDy=0;" edge="1" parent="1" source="tiRIKSp6P3INZl2MkJPP-10" target="tiRIKSp6P3INZl2MkJPP-4">
          <mxGeometry width="50" height="50" relative="1" as="geometry">
            <mxPoint x="390" y="460" as="sourcePoint" />
            <mxPoint x="440" y="410" as="targetPoint" />
          </mxGeometry>
        </mxCell>
        <mxCell id="tiRIKSp6P3INZl2MkJPP-17" value="" style="endArrow=none;html=1;rounded=0;entryX=0.965;entryY=0.695;entryDx=0;entryDy=0;entryPerimeter=0;exitX=0;exitY=0.25;exitDx=0;exitDy=0;" edge="1" parent="1" source="tiRIKSp6P3INZl2MkJPP-4" target="tiRIKSp6P3INZl2MkJPP-11">
          <mxGeometry width="50" height="50" relative="1" as="geometry">
            <mxPoint x="390" y="460" as="sourcePoint" />
            <mxPoint x="440" y="410" as="targetPoint" />
          </mxGeometry>
        </mxCell>
        <mxCell id="tiRIKSp6P3INZl2MkJPP-18" value="" style="endArrow=none;html=1;rounded=0;entryX=1;entryY=0.5;entryDx=0;entryDy=0;exitX=0;exitY=0.75;exitDx=0;exitDy=0;" edge="1" parent="1" source="tiRIKSp6P3INZl2MkJPP-4" target="tiRIKSp6P3INZl2MkJPP-12">
          <mxGeometry width="50" height="50" relative="1" as="geometry">
            <mxPoint x="390" y="460" as="sourcePoint" />
            <mxPoint x="440" y="410" as="targetPoint" />
          </mxGeometry>
        </mxCell>
        <mxCell id="tiRIKSp6P3INZl2MkJPP-19" value="" style="endArrow=none;html=1;rounded=0;exitX=1;exitY=0;exitDx=0;exitDy=0;entryX=0;entryY=1;entryDx=0;entryDy=0;" edge="1" parent="1" source="tiRIKSp6P3INZl2MkJPP-13" target="tiRIKSp6P3INZl2MkJPP-4">
          <mxGeometry width="50" height="50" relative="1" as="geometry">
            <mxPoint x="390" y="460" as="sourcePoint" />
            <mxPoint x="440" y="410" as="targetPoint" />
          </mxGeometry>
        </mxCell>
        <mxCell id="tiRIKSp6P3INZl2MkJPP-21" value="User_id" style="ellipse;whiteSpace=wrap;html=1;" vertex="1" parent="1">
          <mxGeometry x="240" y="170" width="80" height="40" as="geometry" />
        </mxCell>
        <mxCell id="tiRIKSp6P3INZl2MkJPP-22" value="User_name" style="ellipse;whiteSpace=wrap;html=1;" vertex="1" parent="1">
          <mxGeometry x="334" y="150" width="80" height="40" as="geometry" />
        </mxCell>
        <mxCell id="tiRIKSp6P3INZl2MkJPP-23" value="Email_id" style="ellipse;whiteSpace=wrap;html=1;" vertex="1" parent="1">
          <mxGeometry x="440" y="150" width="80" height="40" as="geometry" />
        </mxCell>
        <mxCell id="tiRIKSp6P3INZl2MkJPP-24" value="Passwod" style="ellipse;whiteSpace=wrap;html=1;" vertex="1" parent="1">
          <mxGeometry x="520" y="200" width="80" height="40" as="geometry" />
        </mxCell>
        <mxCell id="tiRIKSp6P3INZl2MkJPP-25" value="" style="endArrow=none;html=1;rounded=0;entryX=0.5;entryY=1;entryDx=0;entryDy=0;exitX=0;exitY=0;exitDx=0;exitDy=0;" edge="1" parent="1" source="tiRIKSp6P3INZl2MkJPP-3" target="tiRIKSp6P3INZl2MkJPP-21">
          <mxGeometry width="50" height="50" relative="1" as="geometry">
            <mxPoint x="390" y="410" as="sourcePoint" />
            <mxPoint x="440" y="360" as="targetPoint" />
          </mxGeometry>
        </mxCell>
        <mxCell id="tiRIKSp6P3INZl2MkJPP-27" value="" style="endArrow=none;html=1;rounded=0;entryX=0.5;entryY=1;entryDx=0;entryDy=0;exitX=0.25;exitY=0;exitDx=0;exitDy=0;" edge="1" parent="1" source="tiRIKSp6P3INZl2MkJPP-3" target="tiRIKSp6P3INZl2MkJPP-22">
          <mxGeometry width="50" height="50" relative="1" as="geometry">
            <mxPoint x="390" y="410" as="sourcePoint" />
            <mxPoint x="440" y="360" as="targetPoint" />
          </mxGeometry>
        </mxCell>
        <mxCell id="tiRIKSp6P3INZl2MkJPP-28" value="" style="endArrow=none;html=1;rounded=0;entryX=0.5;entryY=1;entryDx=0;entryDy=0;exitX=0.75;exitY=0;exitDx=0;exitDy=0;" edge="1" parent="1" source="tiRIKSp6P3INZl2MkJPP-3" target="tiRIKSp6P3INZl2MkJPP-23">
          <mxGeometry width="50" height="50" relative="1" as="geometry">
            <mxPoint x="390" y="410" as="sourcePoint" />
            <mxPoint x="440" y="360" as="targetPoint" />
          </mxGeometry>
        </mxCell>
        <mxCell id="tiRIKSp6P3INZl2MkJPP-29" value="" style="endArrow=none;html=1;rounded=0;entryX=0;entryY=1;entryDx=0;entryDy=0;exitX=1;exitY=0;exitDx=0;exitDy=0;" edge="1" parent="1" source="tiRIKSp6P3INZl2MkJPP-3" target="tiRIKSp6P3INZl2MkJPP-24">
          <mxGeometry width="50" height="50" relative="1" as="geometry">
            <mxPoint x="390" y="410" as="sourcePoint" />
            <mxPoint x="440" y="360" as="targetPoint" />
          </mxGeometry>
        </mxCell>
        <mxCell id="tiRIKSp6P3INZl2MkJPP-48" value="Data_id" style="ellipse;whiteSpace=wrap;html=1;" vertex="1" parent="1">
          <mxGeometry x="220" y="730" width="80" height="40" as="geometry" />
        </mxCell>
        <mxCell id="tiRIKSp6P3INZl2MkJPP-49" value="Email" style="ellipse;whiteSpace=wrap;html=1;" vertex="1" parent="1">
          <mxGeometry x="530" y="730" width="80" height="40" as="geometry" />
        </mxCell>
        <mxCell id="tiRIKSp6P3INZl2MkJPP-50" value="User_id" style="ellipse;whiteSpace=wrap;html=1;" vertex="1" parent="1">
          <mxGeometry x="420" y="760" width="80" height="40" as="geometry" />
        </mxCell>
        <mxCell id="tiRIKSp6P3INZl2MkJPP-51" value="Username" style="ellipse;whiteSpace=wrap;html=1;" vertex="1" parent="1">
          <mxGeometry x="300" y="770" width="90" height="40" as="geometry" />
        </mxCell>
        <mxCell id="tiRIKSp6P3INZl2MkJPP-53" value="" style="endArrow=none;html=1;rounded=0;exitX=0.626;exitY=0.054;exitDx=0;exitDy=0;entryX=0;entryY=1;entryDx=0;entryDy=0;exitPerimeter=0;" edge="1" parent="1" source="tiRIKSp6P3INZl2MkJPP-48" target="tiRIKSp6P3INZl2MkJPP-2">
          <mxGeometry width="50" height="50" relative="1" as="geometry">
            <mxPoint x="420" y="630" as="sourcePoint" />
            <mxPoint x="470" y="580" as="targetPoint" />
          </mxGeometry>
        </mxCell>
        <mxCell id="tiRIKSp6P3INZl2MkJPP-55" value="" style="endArrow=none;html=1;rounded=0;entryX=0.5;entryY=0;entryDx=0;entryDy=0;exitX=0.345;exitY=0.993;exitDx=0;exitDy=0;exitPerimeter=0;" edge="1" parent="1" source="tiRIKSp6P3INZl2MkJPP-2" target="tiRIKSp6P3INZl2MkJPP-51">
          <mxGeometry width="50" height="50" relative="1" as="geometry">
            <mxPoint x="420" y="630" as="sourcePoint" />
            <mxPoint x="470" y="580" as="targetPoint" />
          </mxGeometry>
        </mxCell>
        <mxCell id="tiRIKSp6P3INZl2MkJPP-56" value="" style="endArrow=none;html=1;rounded=0;entryX=0.5;entryY=0;entryDx=0;entryDy=0;exitX=0.618;exitY=0.969;exitDx=0;exitDy=0;exitPerimeter=0;" edge="1" parent="1" source="tiRIKSp6P3INZl2MkJPP-2" target="tiRIKSp6P3INZl2MkJPP-50">
          <mxGeometry width="50" height="50" relative="1" as="geometry">
            <mxPoint x="420" y="630" as="sourcePoint" />
            <mxPoint x="470" y="580" as="targetPoint" />
          </mxGeometry>
        </mxCell>
        <mxCell id="tiRIKSp6P3INZl2MkJPP-57" value="" style="endArrow=none;html=1;rounded=0;entryX=0;entryY=0;entryDx=0;entryDy=0;exitX=0.919;exitY=1.04;exitDx=0;exitDy=0;exitPerimeter=0;" edge="1" parent="1" source="tiRIKSp6P3INZl2MkJPP-2" target="tiRIKSp6P3INZl2MkJPP-49">
          <mxGeometry width="50" height="50" relative="1" as="geometry">
            <mxPoint x="460" y="680" as="sourcePoint" />
            <mxPoint x="470" y="580" as="targetPoint" />
          </mxGeometry>
        </mxCell>
        <mxCell id="tiRIKSp6P3INZl2MkJPP-58" value="Profile" style="ellipse;whiteSpace=wrap;html=1;" vertex="1" parent="1">
          <mxGeometry x="700" y="564.5" width="80" height="40" as="geometry" />
        </mxCell>
        <mxCell id="tiRIKSp6P3INZl2MkJPP-59" value="Msg" style="ellipse;whiteSpace=wrap;html=1;" vertex="1" parent="1">
          <mxGeometry x="760" y="480" width="80" height="40" as="geometry" />
        </mxCell>
        <mxCell id="tiRIKSp6P3INZl2MkJPP-60" value="Reels" style="ellipse;whiteSpace=wrap;html=1;" vertex="1" parent="1">
          <mxGeometry x="747" y="400" width="80" height="40" as="geometry" />
        </mxCell>
        <mxCell id="tiRIKSp6P3INZl2MkJPP-61" value="Post" style="ellipse;whiteSpace=wrap;html=1;" vertex="1" parent="1">
          <mxGeometry x="680" y="340" width="80" height="40" as="geometry" />
        </mxCell>
        <mxCell id="tiRIKSp6P3INZl2MkJPP-62" value="" style="endArrow=none;html=1;rounded=0;entryX=0.313;entryY=0.981;entryDx=0;entryDy=0;entryPerimeter=0;exitX=1;exitY=0;exitDx=0;exitDy=0;" edge="1" parent="1" source="tiRIKSp6P3INZl2MkJPP-5" target="tiRIKSp6P3INZl2MkJPP-61">
          <mxGeometry width="50" height="50" relative="1" as="geometry">
            <mxPoint x="420" y="520" as="sourcePoint" />
            <mxPoint x="470" y="470" as="targetPoint" />
          </mxGeometry>
        </mxCell>
        <mxCell id="tiRIKSp6P3INZl2MkJPP-63" value="" style="endArrow=none;html=1;rounded=0;exitX=1;exitY=0.25;exitDx=0;exitDy=0;" edge="1" parent="1" source="tiRIKSp6P3INZl2MkJPP-5" target="tiRIKSp6P3INZl2MkJPP-60">
          <mxGeometry width="50" height="50" relative="1" as="geometry">
            <mxPoint x="420" y="520" as="sourcePoint" />
            <mxPoint x="470" y="470" as="targetPoint" />
          </mxGeometry>
        </mxCell>
        <mxCell id="tiRIKSp6P3INZl2MkJPP-64" value="" style="endArrow=none;html=1;rounded=0;exitX=0;exitY=0.5;exitDx=0;exitDy=0;entryX=1;entryY=0.75;entryDx=0;entryDy=0;" edge="1" parent="1" source="tiRIKSp6P3INZl2MkJPP-59" target="tiRIKSp6P3INZl2MkJPP-5">
          <mxGeometry width="50" height="50" relative="1" as="geometry">
            <mxPoint x="420" y="520" as="sourcePoint" />
            <mxPoint x="470" y="470" as="targetPoint" />
          </mxGeometry>
        </mxCell>
        <mxCell id="tiRIKSp6P3INZl2MkJPP-65" value="" style="endArrow=none;html=1;rounded=0;entryX=0;entryY=0;entryDx=0;entryDy=0;exitX=1;exitY=1;exitDx=0;exitDy=0;" edge="1" parent="1" source="tiRIKSp6P3INZl2MkJPP-5" target="tiRIKSp6P3INZl2MkJPP-58">
          <mxGeometry width="50" height="50" relative="1" as="geometry">
            <mxPoint x="610" y="590" as="sourcePoint" />
            <mxPoint x="660" y="540" as="targetPoint" />
          </mxGeometry>
        </mxCell>
      </root>
    </mxGraphModel>
  </diagram>
</mxfile>
